<?xml version="1.0" encoding="UTF-8" standalone="no"?>
<svg
   height="24px"
   viewBox="0 -960 960 960"
   width="24px"
   fill="#5f6368"
   version="1.1"
   id="svg4"
   sodipodi:docname="no_image.svg"
   inkscape:version="1.2.2 (732a01da63, 2022-12-09)"
   xmlns:inkscape="http://www.inkscape.org/namespaces/inkscape"
   xmlns:sodipodi="http://sodipodi.sourceforge.net/DTD/sodipodi-0.dtd"
   xmlns="http://www.w3.org/2000/svg"
   xmlns:svg="http://www.w3.org/2000/svg">
  <defs
     id="defs8" />
  <sodipodi:namedview
     id="namedview6"
     pagecolor="#ffffff"
     bordercolor="#000000"
     borderopacity="0.25"
     inkscape:showpageshadow="2"
     inkscape:pageopacity="0.0"
     inkscape:pagecheckerboard="0"
     inkscape:deskcolor="#d1d1d1"
     showgrid="false"
     inkscape:zoom="42.791667"
     inkscape:cx="27.587147"
     inkscape:cy="11.988315"
     inkscape:window-width="3341"
     inkscape:window-height="1406"
     inkscape:window-x="-11"
     inkscape:window-y="-11"
     inkscape:window-maximized="1"
     inkscape:current-layer="svg4" />
  <text
     xml:space="preserve"
     style="font-size:101.333px;fill:#555555;fill-opacity:1;stroke:#2d1aff;stroke-width:53.3668"
     x="-2.8042977"
     y="-17.760452"
     id="text845"><tspan
       sodipodi:role="line"
       id="tspan843"
       style="font-size:101.333px;fill:#555555;fill-opacity:1;stroke:none;stroke-width:53.3669"
       x="-2.8042977"
       y="-17.760452">No image available</tspan></text>
  <path
     d="m 184.57643,-156.92304 c -22,0 -40.83333,-7.83333 -56.5,-23.5 -15.66667,-15.66667 -23.5,-34.5 -23.5,-56.5 v -560 c 0,-22 7.83333,-40.83333 23.5,-56.5 15.66667,-15.6667 34.5,-23.5 56.5,-23.5 h 560 c 22,0 40.8333,7.8333 56.5,23.5 15.6667,15.66667 23.5,34.5 23.5,56.5 v 560 c 0,22 -7.8333,40.83333 -23.5,56.5 -15.6667,15.66667 -34.5,23.5 -56.5,23.5 z m 0,-80 h 560 v -560 h -560 z m 40,-80 h 480 l -150,-200 -120,160 -90,-120 z m -40,80 v -560 z"
     id="path5040" />
</svg>
